<?xml version="1.0" encoding="UTF-8"?><svg xmlns="http://www.w3.org/2000/svg" xmlns:xlink="http://www.w3.org/1999/xlink" fill-opacity="1" color-rendering="auto" color-interpolation="auto" text-rendering="auto" stroke="black" stroke-linecap="square" width="535" stroke-miterlimit="10" shape-rendering="auto" stroke-opacity="1" fill="black" stroke-dasharray="none" font-weight="normal" stroke-width="1" height="174" font-family="'Dialog'" font-style="normal" stroke-linejoin="miter" font-size="12px" stroke-dashoffset="0" image-rendering="auto">
  <!--Generated by ySVG 2.5-->
  <defs id="genericDefs"/>
  <g>
    <defs id="defs1">
      <clipPath clipPathUnits="userSpaceOnUse" id="clipPath1">
        <path d="M0 0 L535 0 L535 174 L0 174 L0 0 Z"/>
      </clipPath>
      <clipPath clipPathUnits="userSpaceOnUse" id="clipPath2">
        <path d="M6 -34 L541 -34 L541 140 L6 140 L6 -34 Z"/>
      </clipPath>
    </defs>
    <g fill="white" text-rendering="geometricPrecision" shape-rendering="geometricPrecision" transform="translate(-6,34)" stroke="white">
      <rect x="6" width="535" height="174" y="-34" clip-path="url(#clipPath2)" stroke="none"/>
    </g>
    <g text-rendering="geometricPrecision" stroke-miterlimit="1.45" shape-rendering="geometricPrecision" transform="matrix(1,0,0,1,-6,34)" stroke-linecap="butt">
      <rect fill="none" x="21" width="74" height="143" y="-18.5" clip-path="url(#clipPath2)"/>
      <text x="43.6621" xml:space="preserve" y="43.0127" clip-path="url(#clipPath2)" font-family="sans-serif" stroke="none">serial</text>
      <text x="34.9873" xml:space="preserve" y="57.7139" clip-path="url(#clipPath2)" font-family="sans-serif" stroke="none">interface</text>
      <text x="48.3291" xml:space="preserve" y="72.415" clip-path="url(#clipPath2)" font-family="sans-serif" stroke="none">API</text>
      <ellipse rx="45.5" fill="none" ry="27" clip-path="url(#clipPath2)" cx="195.5" cy="8.5"/>
      <text x="173.8174" xml:space="preserve" y="5.8633" clip-path="url(#clipPath2)" font-family="sans-serif" stroke="none">decoder</text>
      <text x="178.4873" xml:space="preserve" y="20.5645" clip-path="url(#clipPath2)" font-family="sans-serif" stroke="none">thread</text>
      <rect fill="none" x="271" width="140" height="45" y="-18.5" clip-path="url(#clipPath2)"/>
      <text x="327.9893" xml:space="preserve" y="1.3633" clip-path="url(#clipPath2)" font-family="sans-serif" stroke="none">input</text>
      <text x="324.3154" xml:space="preserve" y="16.0645" clip-path="url(#clipPath2)" font-family="sans-serif" stroke="none">queue</text>
      <rect fill="none" x="462" width="64" height="143" y="-18.5" clip-path="url(#clipPath2)"/>
      <text x="478.6631" xml:space="preserve" y="50.3633" clip-path="url(#clipPath2)" font-family="sans-serif" stroke="none">SvVis</text>
      <text x="484.3291" xml:space="preserve" y="65.0645" clip-path="url(#clipPath2)" font-family="sans-serif" stroke="none">API</text>
      <rect fill="none" x="271" width="140" height="45" y="79.5" clip-path="url(#clipPath2)"/>
      <text x="324.3184" xml:space="preserve" y="99.3633" clip-path="url(#clipPath2)" font-family="sans-serif" stroke="none">output</text>
      <text x="324.3154" xml:space="preserve" y="114.0645" clip-path="url(#clipPath2)" font-family="sans-serif" stroke="none">queue</text>
      <ellipse rx="45.5" fill="none" ry="27" clip-path="url(#clipPath2)" cx="195.5" cy="97.5"/>
      <text x="173.8174" xml:space="preserve" y="94.8633" clip-path="url(#clipPath2)" font-family="sans-serif" stroke="none">encoder</text>
      <text x="178.4873" xml:space="preserve" y="109.5645" clip-path="url(#clipPath2)" font-family="sans-serif" stroke="none">thread</text>
      <path fill="none" d="M95 41.0255 L147.9433 23.8911" clip-path="url(#clipPath2)"/>
      <path d="M155.5546 21.4278 L142.5981 20.3657 L146.9919 24.199 L145.6772 29.8798 Z" clip-path="url(#clipPath2)" stroke="none"/>
      <path fill="none" d="M240.9383 7.0947 L263.0038 6.4123" clip-path="url(#clipPath2)"/>
      <path d="M271 6.1649 L258.8512 1.5383 L262.0043 6.4432 L259.1603 11.5335 Z" clip-path="url(#clipPath2)" stroke="none"/>
      <path fill="none" d="M411 26.4183 L454.3812 40.3116" clip-path="url(#clipPath2)"/>
      <path d="M462 42.7516 L452.0968 34.3299 L453.4288 40.0066 L449.0468 43.8534 Z" clip-path="url(#clipPath2)" stroke="none"/>
      <path fill="none" d="M462 63.2484 L418.6188 77.1417" clip-path="url(#clipPath2)"/>
      <path d="M411 79.5817 L423.9532 80.6834 L419.5712 76.8367 L420.9032 71.1599 Z" clip-path="url(#clipPath2)" stroke="none"/>
      <path fill="none" d="M271 99.8351 L248.9345 99.1526" clip-path="url(#clipPath2)"/>
      <path d="M240.9383 98.9053 L252.778 104.2739 L249.934 99.1835 L253.0872 94.2786 Z" clip-path="url(#clipPath2)" stroke="none"/>
      <path fill="none" d="M155.5546 84.5722 L102.6113 67.4378" clip-path="url(#clipPath2)"/>
      <path d="M95 64.9745 L104.8774 73.4266 L103.5627 67.7458 L107.9565 63.9124 Z" clip-path="url(#clipPath2)" stroke="none"/>
    </g>
  </g>
</svg>
