<?xml version="1.0" encoding="UTF-8"?><svg xmlns="http://www.w3.org/2000/svg" xmlns:xlink="http://www.w3.org/1999/xlink" fill-opacity="1" color-rendering="auto" color-interpolation="auto" text-rendering="auto" stroke="black" stroke-linecap="square" width="397" stroke-miterlimit="10" shape-rendering="auto" stroke-opacity="1" fill="black" stroke-dasharray="none" font-weight="normal" stroke-width="1" height="180" font-family="'Dialog'" font-style="normal" stroke-linejoin="miter" font-size="12px" stroke-dashoffset="0" image-rendering="auto">
  <!--Generated by ySVG 2.5-->
  <defs id="genericDefs"/>
  <g>
    <defs id="defs1">
      <clipPath clipPathUnits="userSpaceOnUse" id="clipPath1">
        <path d="M0 0 L397 0 L397 180 L0 180 L0 0 Z"/>
      </clipPath>
      <clipPath clipPathUnits="userSpaceOnUse" id="clipPath2">
        <path d="M-166 -49 L231 -49 L231 131 L-166 131 L-166 -49 Z"/>
      </clipPath>
    </defs>
    <g fill="white" text-rendering="geometricPrecision" shape-rendering="geometricPrecision" transform="translate(166,49)" stroke="white">
      <rect x="-166" width="397" height="180" y="-49" clip-path="url(#clipPath2)" stroke="none"/>
    </g>
    <g text-rendering="geometricPrecision" stroke-miterlimit="1.45" shape-rendering="geometricPrecision" transform="matrix(1,0,0,1,166,49)" stroke-linecap="butt">
      <rect fill="none" x="-1.5" width="100" height="100" y="11" clip-path="url(#clipPath2)"/>
      <text x="8.8232" xml:space="preserve" y="65.7139" clip-path="url(#clipPath2)" font-family="sans-serif" stroke="none">Swarm Control</text>
      <rect fill="none" x="169.64" width="30" height="30" y="6" clip-path="url(#clipPath2)"/>
      <rect fill="none" x="169.64" width="30" height="30" y="46" clip-path="url(#clipPath2)"/>
      <rect fill="none" x="169.64" width="30" height="30" y="86" clip-path="url(#clipPath2)"/>
      <rect fill="none" x="-150" width="77.36" height="100" y="11" clip-path="url(#clipPath2)"/>
      <text x="-148.6735" xml:space="preserve" y="51.0127" clip-path="url(#clipPath2)" font-family="sans-serif" stroke="none">Visualisierung</text>
      <text x="-112.987" xml:space="preserve" y="65.7139" clip-path="url(#clipPath2)" font-family="sans-serif" stroke="none">/</text>
      <text x="-139.3337" xml:space="preserve" y="80.415" clip-path="url(#clipPath2)" font-family="sans-serif" stroke="none">Simulation</text>
      <text x="155.9554" xml:space="preserve" y="-14.2861" clip-path="url(#clipPath2)" font-family="sans-serif" stroke="none">Fahrzeuge</text>
      <path fill="none" d="M98.5 46.3092 L161.9644 27.6624" clip-path="url(#clipPath2)"/>
      <path d="M169.64 25.4072 L156.7172 23.9928 L161.005 27.9443 L159.5362 33.5872 Z" clip-path="url(#clipPath2)" stroke="none"/>
      <path fill="none" d="M98.5 61 L161.64 61" clip-path="url(#clipPath2)"/>
      <path d="M169.64 61 L157.64 56 L160.64 61 L157.64 66 Z" clip-path="url(#clipPath2)" stroke="none"/>
      <path fill="none" d="M98.5 75.6908 L161.9644 94.3376" clip-path="url(#clipPath2)"/>
      <path d="M169.64 96.5928 L159.5362 88.4128 L161.005 94.0557 L156.7172 98.0072 Z" clip-path="url(#clipPath2)" stroke="none"/>
      <path fill="none" d="M-72.64 61 L-9.5 61" clip-path="url(#clipPath2)"/>
      <path d="M-1.5 61 L-13.5 56 L-10.5 61 L-13.5 66 Z" clip-path="url(#clipPath2)" stroke="none"/>
    </g>
  </g>
</svg>
