<?xml version="1.0" encoding="UTF-8"?><svg xmlns="http://www.w3.org/2000/svg" xmlns:xlink="http://www.w3.org/1999/xlink" fill-opacity="1" color-rendering="auto" color-interpolation="auto" text-rendering="auto" stroke="black" stroke-linecap="square" width="505" stroke-miterlimit="10" shape-rendering="auto" stroke-opacity="1" fill="black" stroke-dasharray="none" font-weight="normal" stroke-width="1" height="205" font-family="'Dialog'" font-style="normal" stroke-linejoin="miter" font-size="12px" stroke-dashoffset="0" image-rendering="auto">
  <!--Generated by ySVG 2.5-->
  <defs id="genericDefs"/>
  <g>
    <defs id="defs1">
      <clipPath clipPathUnits="userSpaceOnUse" id="clipPath1">
        <path d="M0 0 L505 0 L505 205 L0 205 L0 0 Z"/>
      </clipPath>
      <clipPath clipPathUnits="userSpaceOnUse" id="clipPath2">
        <path d="M-15 -15 L490 -15 L490 190 L-15 190 L-15 -15 Z"/>
      </clipPath>
    </defs>
    <g fill="white" text-rendering="geometricPrecision" shape-rendering="geometricPrecision" transform="translate(15,15)" stroke="white">
      <rect x="-15" width="505" height="205" y="-15" clip-path="url(#clipPath2)" stroke="none"/>
    </g>
    <g text-rendering="geometricPrecision" stroke-miterlimit="1.45" shape-rendering="geometricPrecision" transform="matrix(1,0,0,1,15,15)" stroke-linecap="butt">
      <rect fill="none" x="0" width="75" height="75" y="0" clip-path="url(#clipPath2)"/>
      <text x="29.71" xml:space="preserve" y="42.2139" clip-path="url(#clipPath2)" font-family="sans-serif" stroke="none">µC</text>
      <rect fill="none" x="100" width="75" height="75" y="0" clip-path="url(#clipPath2)"/>
      <text x="112.1582" xml:space="preserve" y="27.5127" clip-path="url(#clipPath2)" font-family="sans-serif" stroke="none">DAP-Link</text>
      <text x="135.833" xml:space="preserve" y="42.2139" clip-path="url(#clipPath2)" font-family="sans-serif" stroke="none">/</text>
      <text x="112.1465" xml:space="preserve" y="56.915" clip-path="url(#clipPath2)" font-family="sans-serif" stroke="none">Bluetooth</text>
      <rect fill="none" x="200" width="75" height="75" y="0" clip-path="url(#clipPath2)"/>
      <text x="218.498" xml:space="preserve" y="42.2139" clip-path="url(#clipPath2)" font-family="sans-serif" stroke="none">PC-OS</text>
      <rect fill="none" x="200" width="75" height="75" y="100" clip-path="url(#clipPath2)"/>
      <text x="222.1631" xml:space="preserve" y="134.8633" clip-path="url(#clipPath2)" font-family="sans-serif" stroke="none">SvVis</text>
      <text x="203.4951" xml:space="preserve" y="149.5645" clip-path="url(#clipPath2)" font-family="sans-serif" stroke="none">COM-Modus</text>
      <rect fill="none" x="300" width="75" height="75" y="0" clip-path="url(#clipPath2)"/>
      <text x="313.1572" xml:space="preserve" y="42.2139" clip-path="url(#clipPath2)" font-family="sans-serif" stroke="none">tcptocom</text>
      <rect fill="none" x="300" width="75" height="75" y="100" clip-path="url(#clipPath2)"/>
      <text x="322.1631" xml:space="preserve" y="134.8633" clip-path="url(#clipPath2)" font-family="sans-serif" stroke="none">SvVis</text>
      <text x="299.8242" xml:space="preserve" y="149.5645" clip-path="url(#clipPath2)" font-family="sans-serif" stroke="none">TCPIP-Modus</text>
      <rect fill="none" x="400" width="75" height="75" y="0" clip-path="url(#clipPath2)"/>
      <text x="418.832" xml:space="preserve" y="34.8633" clip-path="url(#clipPath2)" font-family="sans-serif" stroke="none">Swarm</text>
      <text x="418.1582" xml:space="preserve" y="49.5645" clip-path="url(#clipPath2)" font-family="sans-serif" stroke="none">Control</text>
      <path fill="none" d="M75 37.5 L100 37.5" clip-path="url(#clipPath2)"/>
      <path fill="none" d="M175 37.5 L200 37.5" clip-path="url(#clipPath2)"/>
      <path fill="none" stroke-dasharray="6,2" d="M237.5 100 L237.5 75" clip-path="url(#clipPath2)"/>
      <path fill="none" d="M275 37.5 L300 37.5" clip-path="url(#clipPath2)"/>
      <path fill="none" stroke-dasharray="6,2" d="M337.5 100 L337.5 75" clip-path="url(#clipPath2)"/>
      <path fill="none" d="M375 37.5 L400 37.5" clip-path="url(#clipPath2)"/>
    </g>
  </g>
</svg>
